<?xml version="1.0" encoding="UTF-8" standalone="no"?>
<!-- Created with Inkscape (http://www.inkscape.org/) -->

<svg
   xmlns:dc="http://purl.org/dc/elements/1.1/"
   xmlns:cc="http://creativecommons.org/ns#"
   xmlns:rdf="http://www.w3.org/1999/02/22-rdf-syntax-ns#"
   xmlns:svg="http://www.w3.org/2000/svg"
   xmlns="http://www.w3.org/2000/svg"
   xmlns:sodipodi="http://sodipodi.sourceforge.net/DTD/sodipodi-0.dtd"
   xmlns:inkscape="http://www.inkscape.org/namespaces/inkscape"
   width="167.45316mm"
   height="79.353859mm"
   viewBox="0 0 167.45316 79.353859"
   version="1.1"
   id="svg8"
   inkscape:version="0.92.3 (2405546, 2018-03-11)"
   sodipodi:docname="entry_payment.svg">
  <defs
     id="defs2" />
  <sodipodi:namedview
     id="base"
     pagecolor="#46ffff"
     bordercolor="#666666"
     borderopacity="1.0"
     inkscape:pageopacity="0"
     inkscape:pageshadow="2"
     inkscape:zoom="1.4"
     inkscape:cx="219.57925"
     inkscape:cy="219.80682"
     inkscape:document-units="mm"
     inkscape:current-layer="layer1"
     showgrid="false"
     inkscape:window-width="2560"
     inkscape:window-height="1391"
     inkscape:window-x="0"
     inkscape:window-y="25"
     inkscape:window-maximized="1"
     fit-margin-top="0"
     fit-margin-left="0"
     fit-margin-right="0"
     fit-margin-bottom="0" />
  <metadata
     id="metadata5">
    <rdf:RDF>
      <cc:Work
         rdf:about="">
        <dc:format>image/svg+xml</dc:format>
        <dc:type
           rdf:resource="http://purl.org/dc/dcmitype/StillImage" />
        <dc:title></dc:title>
      </cc:Work>
    </rdf:RDF>
  </metadata>
  <g
     inkscape:label="Layer 1"
     inkscape:groupmode="layer"
     id="layer1"
     transform="translate(-88.131631,-133.84748)">
    <path
       inkscape:connector-curvature="0"
       id="path3725"
       sodipodi:nodetypes="cssccccccssc"
       style="fill:#000000;stroke-width:0.32289749"
       d="m 171.97326,199.39683 c 2.35382,3.69879 9.7515,3.02636 13.11416,2.35383 3.36265,-0.67254 3.61613,4.11791 10.00498,3.44531 6.38885,-0.67253 10.36791,-2.98615 11.76638,-8.99366 2.07116,-2.64492 14.08705,-6.90097 13.30306,-18.1688 5.60485,0.5013 9.98334,0.40801 14.22395,1.02927 l 0.33627,-3.69879 c -4.29744,-0.27145 -9.78799,-0.27032 -17.18557,-0.0411 0,7.56581 -3.39818,12.83647 -9.81641,16.44614 0.7125,-14.8662 -7.98719,-11.37148 -8.65753,-12.46256 -3.97067,-6.46279 -7.35367,-2.01756 -8.86709,-5.21221 -2.36096,-4.98424 -24.27575,11.85196 -18.22272,25.30257 z" />
    <path
       inkscape:connector-curvature="0"
       id="path3727"
       sodipodi:nodetypes="cssssz"
       style="fill:#ffffff;stroke-width:0.32289749"
       d="m 173.99137,195.52852 c 0.33626,4.03525 5.38012,6.05271 11.43283,3.19449 9.48221,-4.47762 10.08796,-7.39791 10.76024,-9.24714 0.67253,-1.84943 2.18569,-5.54835 1.34506,-7.39791 -0.84067,-1.84942 -1.17693,-3.53088 -4.87575,-4.20315 -3.6988,-0.67253 -18.99897,13.61852 -18.66251,17.65377 z" />
    <path
       inkscape:connector-curvature="0"
       id="path3729"
       sodipodi:nodetypes="cscsc"
       style="fill:#ffffff;stroke-width:0.32289749"
       d="m 199.88452,182.41565 c -0.16813,3.19449 -0.92995,8.45636 -2.01756,10.08796 -1.34506,2.0176 -4.20316,4.87576 -8.74277,7.39791 3.19449,4.70752 11.60106,2.52196 14.12289,-1.5132 2.52196,-4.03525 2.69009,-17.14941 -3.36266,-15.97244 z" />
    <path
       d="m 188.09553,213.2007 c 0,0 4.77372,-11.79609 6.62069,-32.02433 -21.89988,0.52119 -60.71442,-8.34238 -84.74768,-10.06375 -5.22448,12.17453 -11.077964,25.85731 -16.571742,35.78028 9.201292,2.91582 94.699382,6.30844 94.699382,6.30844 z"
       style="fill:red;stroke-width:0.32289749"
       sodipodi:nodetypes="ccccc"
       id="path3592-0"
       inkscape:connector-curvature="0" />
    <path
       d="m 186.06128,209.41311 c 0,0 4.83087,-15.6996 4.7453,-25.51019 -20.7339,1.00007 -57.15932,-7.64654 -78.48024,-9.17384 -4.82732,13.45481 -10.06956,21.98835 -14.120952,29.49216 8.162202,2.58664 87.853952,5.19187 87.853952,5.19187 z"
       style="fill:#ffffff;stroke-width:0.32289749"
       sodipodi:nodetypes="ccccc"
       id="path3592-4-6"
       inkscape:connector-curvature="0" />
    <path
       d="m 184.74063,205.20899 c 0,0 6.57871,-15.63406 9.14284,-31.6601 -21.2783,1.13937 -60.67567,-7.10504 -84.54425,-10.41183 -10.770896,11.54229 -17.244345,23.46883 -21.207589,34.75345 18.166209,4.57837 96.607699,7.3188 96.607699,7.3188 z"
       style="fill:red;stroke-width:0.32289749"
       sodipodi:nodetypes="ccccc"
       id="path3592-5-0"
       inkscape:connector-curvature="0" />
    <path
       d="m 182.1413,201.16631 c 0,0 7.05919,-15.88107 7.50446,-25.22927 -18.87594,1.01073 -57.90521,-5.95714 -79.0776,-8.89066 -4.93839,5.53672 -14.64146,17.56691 -17.478438,28.3617 7.973308,3.1207 89.051898,5.75791 89.051898,5.75791 z"
       style="fill:#ffffff;stroke-width:0.32289749"
       sodipodi:nodetypes="ccccc"
       id="path3592-4-4-2"
       inkscape:connector-curvature="0" />
    <path
       inkscape:connector-curvature="0"
       id="path3733"
       style="fill:#ffffff;stroke-width:0.32289749"
       d="m 168.10818,159.54805 c -6.55708,11.9372 -13.45062,17.98991 -18.49428,20.8482 -5.04398,2.85822 -3.02636,9.41537 4.37138,8.57454 7.39791,-0.84066 20.51207,-10.92846 24.04263,-14.79548 3.53088,-3.86702 12.27366,2.85822 24.88345,-3.02636 12.60979,-5.88458 -11.9372,-25.55605 -21.35257,-20.34384 -9.41536,5.21222 -9.7515,2.85823 -13.45061,8.74278 z" />
    <path
       inkscape:connector-curvature="0"
       id="path3672"
       sodipodi:nodetypes="cssscssssssccssz"
       style="fill:#000000;stroke-width:0.32289749"
       d="m 172.40271,157.47505 c -4.30971,3.60644 -9.55098,16.4203 -16.55011,20.14267 -6.21222,3.30388 -9.98464,7.8506 -4.06689,9.30106 7.2526,1.7779 18.6089,-6.03205 23.63932,-12.2065 4.10016,-5.03235 17.16362,0.487 31.20998,-5.34233 -12.56039,8.95653 -25.18503,3.64099 -28.20897,7.30555 -7.84608,9.50804 -20.38226,15.92692 -28.96907,13.17551 -4.54898,-1.45753 -6.16314,-7.8096 -0.62791,-11.01694 13.71669,-7.9478 14.60918,-17.13714 21.06164,-22.81594 6.75243,-5.9426 17.35542,-9.62751 19.9147,-9.92328 3.48891,-0.40288 20.02062,-1.60919 26.95419,-1.44536 6.93326,0.16384 13.32372,0.80273 17.84493,1.5089 l -0.18505,3.75853 c -5.65361,-1.38975 -11.77317,-1.20008 -18.24177,-1.55029 -6.46861,-0.35022 -22.11073,0.66358 -26.12596,1.36714 -2.59558,0.4548 -13.33922,4.13471 -17.64893,7.74115 z" />
    <path
       inkscape:connector-curvature="0"
       id="path3735"
       sodipodi:nodetypes="ccccc"
       style="fill:#000000;stroke-width:0.32289749"
       d="m 172.98393,155.00811 c -11.29754,2.20329 -20.76715,13.48291 -23.76267,16.71059 l 2.82509,0.63065 c 3.35975,-2.1391 10.57522,-11.81772 16.56432,-12.48547 l 4.37332,-4.85574 z" />
    <path
       d="m 255.13624,133.84748 c -9.53135,0.45977 -17.48525,2.49999 -17.48525,2.49999 l -0.8377,3.2729 c 0,0 -10.21874,0.52253 -10.60371,2.11312 -2.74002,11.31835 1.65746,41.8809 1.65746,41.8809 l 11.23791,0.62166 3.09907,9.24004 13.38077,1.82843 -0.44836,-61.45477 z"
       style="fill:red;stroke-width:0.26458332"
       sodipodi:nodetypes="cccsccccc"
       id="path3774-7"
       inkscape:connector-curvature="0" />
    <path
       d="m 236.23705,143.04175 c 0,0 0.009,20.71423 1.98298,36.576 -2.2325,0.44926 -7.53057,-0.24218 -7.53057,-0.24218 0,0 -3.38164,-25.59791 -1.47275,-35.72404 1.54252,-0.77301 3.47821,-0.75608 7.02045,-0.60992 z"
       style="fill:red;stroke-width:0.26458332"
       sodipodi:nodetypes="ccccc"
       id="path3776-5"
       inkscape:connector-curvature="0" />
    <g
       transform="matrix(4.3825817,0,0,-4.3825817,23.893013,264.94467)"
       inkscape:label="turkish_lira"
       id="g1088">
      <g
         transform="translate(-0.029,6.925)"
         id="g1090">
        <g
           id="g1092">
          <g
             id="g1094"
             transform="matrix(0.67392595,-0.40815875,0.41467135,0.66334165,23.363329,14.739446)">
            <path
               inkscape:connector-curvature="0"
               id="path1096"
               style="fill:red;fill-opacity:1;fill-rule:nonzero;stroke:none"
               d="m 1.29915,-0.22256 c 0.3838,0 0.60675,0 0.66884,0 0,-0.06774 0,-0.3584 0,-0.87201 0,-0.51361 0,-0.80146 0,-0.86354 l 2.03184,0.73655 c 0,-0.19755 0,-0.37534 0,-0.53337 L 1.96799,-2.49147 c 0,-0.02258 0,-0.07056 0,-0.14392 0,-0.07338 0,-0.12134 0,-0.14394 l 1.10057,0.38945 0.93127,0.34711 c 0,-0.03387 0,-0.11993 0,-0.25823 0,-0.13827 0,-0.22152 0,-0.24974 0,-0.02256 -0.00564,-0.03386 -0.01693,-0.03386 L 2.02724,-3.28728 c -0.02257,-0.0113 -0.04233,-0.02258 -0.05925,-0.03387 0,-0.34429 0,-0.81978 0,-1.42653 0,-0.60672 0,-1.08225 0,-1.42653 0,0 0,-0.00282 0,-0.00845 0,-0.00566 0,-0.00847 0,-0.00847 0.51359,0.06209 0.96792,0.25679 1.36302,0.58415 0.43459,0.35558 0.72526,0.79863 0.87201,1.32916 0.06208,0.24271 0.09312,0.48539 0.09312,0.72809 0,0 0.22576,0 0.67728,0 0,-0.54747 -0.13263,-1.0639 -0.3979,-1.5493 C 4.38927,-5.47151 4.13528,-5.79324 3.81358,-6.06415 3.51445,-6.3294 3.17862,-6.53261 2.8061,-6.6737 2.32072,-6.85995 1.8184,-6.92487 1.29915,-6.86842 c 0,0.36686 0,0.91716 0,1.65088 0,0.73373 0,1.28683 0,1.65934 0,0 -0.03668,-0.01411 -0.11005,-0.04232 L 0.02924,-4.01537 c 0,0.16932 0,0.34711 0,0.53336 l 1.26991,0.45717 c 0,0.03387 0,0.13264 0,0.29632 C 1.23708,-2.75673 1.15382,-2.7906 1.04941,-2.83011 0.94499,-2.86963 0.87868,-2.8922 0.85045,-2.89784 L 0.18164,-3.14337 c 0,0 -0.01834,-0.00563 -0.05504,-0.01693 -0.03668,-0.01129 -0.06914,-0.01975 -0.09736,-0.02538 0,0.2709 0,0.4487 0,0.53335 l 1.26991,0.4487 c 0,0.24834 0,0.57853 0,0.99054 0,0.412 0,0.74219 0,0.99053 z" />
          </g>
        </g>
      </g>
    </g>
    <path
       style="opacity:0.45199998;fill:#ffffff;fill-opacity:1;stroke:none;stroke-width:1.43171227;stroke-linecap:round;stroke-miterlimit:4;stroke-dasharray:none;stroke-opacity:1"
       d="m 452.11494,212.03966 c -0.0134,-7.05531 -0.28334,-10.29993 -1.27162,-15.28214 -2.26806,-11.434 -7.11496,-18.5291 -14.86062,-21.75363 -2.74917,-1.14448 -5.65674,-1.71658 -10.88892,-2.14255 -2.49345,-0.20299 -4.73589,-0.4478 -4.9832,-0.544 -0.24731,-0.0962 -1.26977,-1.37977 -2.27215,-2.85235 -2.17324,-3.1927 -5.71155,-6.97463 -8.08906,-8.64599 -2.85514,-2.00713 -7.20161,-3.51638 -10.12674,-3.51638 h -1.08033 l 0.31109,-1.65545 c 0.17111,-0.91051 0.35217,-1.68644 0.40237,-1.72431 0.0502,-0.0379 1.28451,-0.2689 2.74292,-0.51341 14.97702,-2.51091 29.65316,-8.28569 42.51812,-16.73006 1.78664,-1.17272 3.19587,-2.18479 3.13162,-2.24904 -0.0643,-0.0643 -1.62357,0.45322 -3.46515,1.14993 -1.84157,0.69671 -3.37891,1.26675 -3.41631,1.26675 -0.0374,0 0.63126,-0.73091 1.48588,-1.62424 3.01026,-3.14658 4.62975,-6.88407 4.87699,-11.25521 0.40665,-7.18926 -3.18686,-15.72566 -10.52459,-25.001271 -3.03493,-3.836446 -10.79988,-11.457352 -15.49613,-15.20867 -12.77297,-10.202919 -27.61617,-17.982591 -40.53968,-21.2478 l -2.36261,-0.59693 1.9838,-0.532077 c 3.14669,-0.843972 5.07424,-1.248407 7.91846,-1.661433 5.87278,-0.852822 18.67231,-2.032807 31.56726,-2.910176 27.44597,-1.867415 50.30436,-2.441371 67.30142,-1.689886 5.13915,0.227216 12.52589,0.52573 16.41498,0.663364 3.88908,0.137634 8.88934,0.32337 11.11168,0.412746 l 4.04061,0.162502 -0.0898,10.760713 c -0.14558,17.450988 0.60941,34.291588 2.62787,58.616688 0.55401,6.67652 2.29003,24.64143 2.78419,28.81178 l 0.16725,1.41139 -12.8463,0.19905 c -7.06546,0.10948 -14.94868,0.26985 -17.51825,0.35638 l -4.67196,0.15732 -0.15776,3.91434 c -0.90812,22.53177 -10.25827,39.8731 -28.51854,52.89214 -2.10727,1.50242 -7.89296,5.19358 -8.13668,5.19103 -0.0317,-2.5e-4 -0.0632,-2.98343 -0.0701,-6.62912 z"
       id="path1203"
       inkscape:connector-curvature="0"
       transform="matrix(0.26458333,0,0,0.26458333,88.131631,133.84748)" />
    <path
       style="opacity:1;fill:#ffffff;fill-opacity:1;stroke:none;stroke-width:1.43171227;stroke-linecap:round;stroke-miterlimit:4;stroke-dasharray:none;stroke-opacity:1"
       d="m 452.17546,211.28265 c -0.18289,-8.55771 -0.76008,-13.35697 -2.22474,-18.49842 -2.89192,-10.15157 -8.31824,-16.31124 -16.43615,-18.65741 -2.18229,-0.63071 -4.4711,-0.96683 -9.79761,-1.43883 -1.7362,-0.15385 -3.39381,-0.43012 -3.68357,-0.61392 -0.28976,-0.18381 -1.31254,-1.44626 -2.27284,-2.80543 -2.10941,-2.98558 -5.71159,-6.81843 -7.82627,-8.32743 -2.90621,-2.07383 -7.21528,-3.63859 -10.02,-3.63859 h -1.246 l 0.17905,-1.32583 c 0.0985,-0.7292 0.26862,-1.49671 0.37811,-1.70558 0.13449,-0.25657 1.29242,-0.57157 3.56959,-0.97106 11.93652,-2.09404 25.12317,-6.83785 35.58549,-12.80163 2.92779,-1.66892 9.41629,-5.91978 9.26573,-6.07034 -0.0676,-0.0676 -1.51713,0.39585 -3.22117,1.02989 -1.70404,0.63404 -3.15382,1.09723 -3.22174,1.02931 -0.0679,-0.0679 0.48714,-0.80003 1.23345,-1.62691 9.16632,-10.15587 4.6361,-25.85698 -12.40328,-42.988053 -13.28416,-13.355644 -31.4993,-24.276227 -48.21648,-28.907377 -1.72443,-0.477717 -3.18483,-0.918091 -3.24535,-0.978609 -0.29106,-0.291056 6.47433,-1.794023 10.80009,-2.399299 10.54892,-1.476042 38.89802,-3.510491 59.85154,-4.295196 18.667,-0.699075 25.36981,-0.637701 53.53808,0.490216 6.87535,0.275303 13.2109,0.5016 14.079,0.502882 l 1.57837,0.0023 0.002,12.058696 c 0.003,19.070261 0.70788,34.32803 2.66394,57.64183 0.6147,7.3264 2.50278,26.9155 2.78926,28.93892 l 0.14632,1.03345 -13.21782,0.19742 c -7.26984,0.10859 -15.14978,0.26857 -17.51101,0.35551 l -4.29315,0.15808 -0.18296,3.66181 c -1.25096,25.03721 -11.43405,42.30489 -33.1222,56.16606 -1.65031,1.05474 -3.08257,1.91771 -3.18278,1.91771 -0.1002,0 -0.2508,-3.21039 -0.33466,-7.1342 z"
       id="path1205"
       inkscape:connector-curvature="0"
       transform="matrix(0.26458333,0,0,0.26458333,88.131631,133.84748)" />
    <path
       style="opacity:1;fill:#ffffff;fill-opacity:1;stroke:none;stroke-width:4.04949379;stroke-linecap:round;stroke-miterlimit:4;stroke-dasharray:none;stroke-opacity:1"
       d="m 258.40222,138.57 -6.67702,-1.07024 5.60559,-5.70161 c 13.30225,-13.53011 32.83289,-29.62425 34.24099,-28.21615 0.57904,0.57903 -14.79972,23.73696 -20.39386,30.70985 -2.44262,3.04464 -4.81408,5.49357 -5.2699,5.44205 -0.45582,-0.0515 -3.83343,-0.57527 -7.5058,-1.1639 z"
       id="path1207"
       inkscape:connector-curvature="0"
       transform="matrix(0.26458333,0,0,0.26458333,88.131631,133.84748)" />
  </g>
</svg>
