<?xml version="1.0" standalone="no"?>
<!DOCTYPE svg PUBLIC "-//W3C//DTD SVG 20010904//EN"
 "http://www.w3.org/TR/2001/REC-SVG-20010904/DTD/svg10.dtd">
<svg version="1.0" xmlns="http://www.w3.org/2000/svg"
 width="2958.000000pt" height="2960.000000pt" viewBox="0 0 2958.000000 2960.000000"
 preserveAspectRatio="xMidYMid meet">

<g transform="translate(0.000000,2960.000000) scale(0.100000,-0.100000)"
fill="#000000" stroke="none">
<path d="M12678 29343 c-69 -76 -209 -230 -312 -343 -148 -162 -186 -210 -186
-232 0 -28 13 -37 25 -18 19 30 25 -3 25 -135 0 -132 6 -165 25 -135 18 30 25
-1 25 -115 l0 -125 25 16 25 16 0 -112 c0 -109 1 -112 18 -97 28 26 32 21 32
-34 l0 -51 33 28 32 27 3 -41 c2 -23 7 -42 12 -42 5 0 78 11 162 25 356 57
850 115 1158 135 91 6 188 13 217 16 l52 5 3 42 c3 39 5 42 48 58 l45 17 3 55
3 55 49 13 c44 11 49 16 52 42 3 25 10 33 45 46 42 15 42 15 45 70 l3 55 45
11 c41 10 45 14 48 43 2 18 7 32 13 32 5 0 9 11 9 24 0 20 6 25 40 31 36 6 40
10 40 36 0 29 -2 27 -132 -69 -73 -54 -139 -101 -146 -106 -7 -4 -80 35 -190
105 -223 141 -660 417 -994 627 -141 89 -261 162 -266 162 -5 0 -66 -62 -134
-137z"/>
<path d="M14390 27829 c-1906 -52 -3764 -521 -5465 -1379 -1668 -841 -3131
-2027 -4303 -3488 -1183 -1474 -2023 -3171 -2478 -5007 -183 -738 -295 -1468
-356 -2320 -18 -243 -17 -1332 0 -1585 113 -1638 459 -3064 1090 -4495 756
-1713 1893 -3258 3317 -4506 1138 -998 2388 -1767 3751 -2309 1136 -452 2321
-741 3529 -859 497 -49 642 -56 1290 -56 634 0 760 5 1210 46 3278 299 6312
1830 8514 4299 1634 1831 2714 4077 3116 6480 125 751 178 1394 178 2175 0
453 -10 698 -44 1105 -111 1327 -429 2645 -929 3855 -179 433 -473 1041 -679
1405 l-99 175 59 60 58 59 53 -11 c45 -9 56 -8 71 5 9 8 17 20 17 25 0 6 -50
94 -112 196 -491 819 -1086 1600 -1732 2276 l-114 120 -106 -105 -105 -104
-213 210 c-409 403 -800 743 -1238 1076 -1143 868 -2384 1529 -3719 1980 -347
116 -596 189 -968 284 -785 198 -1545 318 -2373 374 -163 11 -791 31 -895 28
-33 -1 -179 -5 -325 -9z m1125 -708 c1064 -71 1986 -242 2970 -551 877 -275
1761 -673 2585 -1163 276 -164 730 -466 730 -486 0 -9 -42 -58 -93 -109 l-94
-93 -151 100 c-278 185 -738 462 -746 449 -1 -2 -23 -28 -48 -58 -26 -32 -51
-74 -58 -99 -8 -32 -39 -77 -103 -155 -73 -88 -100 -131 -132 -204 -38 -89
-56 -113 -502 -650 -444 -534 -467 -560 -568 -637 -69 -53 -130 -110 -179
-170 l-74 -89 36 -21 c20 -12 93 -52 162 -90 366 -201 765 -456 1077 -689
l123 -91 -104 -104 -104 -104 -123 90 c-1049 760 -2278 1296 -3551 1547 -301
60 -666 115 -640 98 11 -8 12 -24 2 -88 -18 -128 -20 -134 -41 -134 -10 0 -19
-5 -19 -10 0 -7 -6 -7 -19 0 -29 15 -118 13 -124 -4 -3 -8 -15 -12 -29 -9
l-24 5 13 126 c7 70 11 132 9 138 -7 17 -488 54 -712 54 l-91 0 -7 -46 c-3
-26 -6 -113 -6 -195 l0 -147 -36 9 c-24 7 -39 7 -48 0 -7 -6 -15 -8 -18 -6 -3
3 -16 8 -29 10 -12 3 -30 11 -38 19 -13 13 -16 13 -26 -1 -27 -36 -35 -3 -35
140 0 78 -3 159 -6 180 l-7 37 -81 0 c-220 -1 -716 -38 -722 -55 -3 -7 1 -70
9 -141 8 -71 13 -130 12 -132 -1 -2 -19 5 -40 15 -35 17 -37 17 -47 0 -9 -16
-13 -15 -48 13 -21 16 -40 30 -43 30 -2 0 -10 -13 -17 -29 -7 -18 -17 -28 -25
-25 -12 5 -17 33 -41 210 l-6 41 -156 -23 c-172 -26 -380 -63 -539 -96 -74
-15 -103 -26 -103 -36 0 -12 -3 -12 -15 -2 -12 10 -19 7 -38 -14 -21 -22 -26
-24 -42 -12 -18 13 -48 11 -70 -4 -5 -4 -26 -7 -46 -9 -68 -3 -636 -169 -783
-228 -33 -14 -128 -49 -211 -78 -293 -103 -516 -201 -915 -402 -295 -149 -347
-177 -555 -301 -181 -108 -593 -383 -767 -514 -168 -125 -305 -233 -323 -253
-5 -6 -66 -58 -135 -114 -351 -291 -779 -721 -1110 -1118 -136 -163 -358 -455
-497 -653 -303 -434 -625 -1010 -829 -1482 -36 -84 -75 -173 -86 -197 -186
-412 -438 -1256 -528 -1765 -92 -528 -118 -735 -145 -1176 -75 -1214 110
-2497 525 -3645 282 -779 707 -1586 1174 -2225 53 -72 96 -134 96 -138 0 -4
-45 -52 -100 -107 l-99 -99 -23 25 c-13 14 -33 38 -45 52 l-21 27 -199 -238
c-149 -180 -211 -248 -251 -273 -42 -27 -121 -114 -368 -411 -173 -208 -314
-380 -314 -383 0 -3 7 -5 15 -5 8 0 15 -3 15 -7 0 -5 -74 -97 -165 -205 -147
-176 -162 -197 -141 -200 22 -3 17 -12 -64 -108 -72 -86 -85 -106 -69 -108 10
-2 19 -6 19 -8 0 -3 -27 -38 -61 -77 -53 -64 -58 -73 -40 -77 19 -5 19 -6 3
-27 -17 -22 -17 -22 -83 55 -159 187 -441 552 -593 770 -31 45 -61 82 -65 82
-4 0 -29 -22 -55 -49 -27 -27 -61 -52 -75 -56 -14 -3 -40 -20 -58 -37 l-31
-30 -100 148 c-791 1184 -1364 2482 -1707 3866 -315 1270 -422 2687 -304 4028
97 1111 350 2222 738 3253 255 676 590 1369 961 1988 828 1379 1922 2589 3210
3551 1395 1040 3012 1779 4710 2152 680 149 1408 243 2185 280 144 7 1046 -3
1200 -13z m7330 -3390 c213 -189 766 -745 983 -991 l31 -35 101 100 101 100
36 -40 c100 -114 298 -355 416 -508 993 -1279 1720 -2733 2152 -4301 30 -108
53 -173 73 -200 132 -189 227 -493 268 -858 17 -154 15 -345 -7 -474 -10 -59
-8 -99 10 -260 88 -786 104 -1608 45 -2369 -226 -2947 -1486 -5689 -3574
-7775 -1976 -1975 -4548 -3217 -7310 -3529 -385 -44 -950 -81 -1234 -81 -80 0
-112 -5 -168 -25 -108 -39 -297 -73 -474 -85 -383 -26 -805 50 -968 174 -25
18 -57 26 -166 40 -74 10 -252 37 -395 61 -2323 385 -4482 1427 -6235 3009
-164 148 -530 505 -530 516 0 4 20 11 44 14 24 4 51 15 61 26 9 10 23 16 31
13 8 -3 20 0 27 6 8 6 45 15 82 20 66 10 71 9 101 -14 27 -21 34 -22 44 -10 9
10 24 13 57 8 40 -5 47 -3 66 20 20 24 25 26 62 17 30 -7 43 -6 53 4 10 10 24
11 55 4 39 -9 44 -7 67 19 23 26 29 27 67 19 39 -8 44 -6 66 20 23 27 26 28
63 16 32 -9 41 -9 55 4 14 13 24 13 56 5 36 -11 39 -10 65 20 25 30 28 31 63
19 31 -10 39 -10 56 6 10 9 22 14 26 11 3 -4 11 0 17 9 10 13 16 14 40 3 26
-12 30 -11 50 12 12 14 27 24 33 22 6 -2 14 1 17 6 5 7 15 6 32 -1 24 -11 29
-9 60 24 24 26 39 35 53 31 26 -7 26 -10 2 -70 -59 -151 -72 -363 -32 -528 40
-168 147 -351 279 -482 209 -207 558 -363 811 -363 l67 0 214 292 c118 161
215 298 215 305 0 13 -295 234 -307 230 -3 -1 -75 -96 -159 -210 -84 -115
-159 -211 -166 -214 -8 -3 -52 7 -99 22 -142 46 -279 146 -358 262 -66 97 -88
167 -94 291 -4 90 -1 112 22 186 63 204 235 371 431 421 176 45 389 -18 545
-163 107 -98 166 -200 195 -337 10 -48 16 -60 31 -59 10 0 95 9 188 19 l168
19 -6 50 c-42 318 -280 618 -621 782 -114 55 -229 90 -327 101 l-57 6 37 43
c20 24 42 44 48 44 7 0 32 23 56 51 42 48 45 50 71 38 15 -7 28 -10 30 -8 2 2
38 45 80 96 42 50 77 94 77 98 0 3 -11 16 -24 29 l-25 22 104 104 104 104 43
-35 c211 -170 653 -477 928 -644 1054 -640 2211 -1054 3445 -1230 185 -27 194
-27 346 -15 285 24 569 4 774 -53 73 -20 99 -22 305 -20 1606 17 3160 457
4544 1285 870 521 1695 1232 2349 2026 1427 1732 2163 3941 2057 6174 -11 215
-11 217 -44 290 -86 185 -142 396 -176 661 -24 191 -25 271 -3 447 9 74 16
149 15 166 -2 95 -180 735 -297 1069 -317 907 -823 1832 -1413 2585 -41 52
-80 101 -85 108 -8 10 15 39 92 116 l103 103 -68 84 c-249 308 -580 652 -969
1010 -38 35 -70 68 -70 72 0 5 374 458 830 1007 l830 998 55 -46 c30 -26 114
-98 185 -161z m-5761 -2182 c4 -143 4 -459 0 -702 l-6 -442 -240 -845 c-259
-913 -743 -2617 -1638 -5760 -312 -1097 -573 -2014 -579 -2037 l-12 -43 -808
0 -808 0 37 128 c21 70 179 606 350 1192 346 1182 901 3077 1160 3960 93 316
279 953 415 1415 135 462 319 1087 407 1388 88 301 159 549 157 551 -3 3
-2519 15 -3106 16 l-83 0 0 720 0 720 2373 0 2374 0 7 -261z m231 -10763 c184
-50 322 -160 401 -320 67 -137 85 -220 91 -423 l6 -173 -235 0 -235 0 -6 133
c-7 166 -25 227 -81 283 -46 47 -93 64 -177 64 -107 0 -176 -41 -218 -129 -24
-51 -26 -66 -26 -181 1 -147 18 -209 93 -330 46 -75 144 -177 469 -490 313
-301 423 -536 423 -905 0 -498 -229 -777 -669 -814 -325 -28 -572 71 -711 284
-85 131 -119 268 -127 523 l-6 182 242 0 241 0 0 -143 c0 -160 15 -239 57
-299 74 -108 287 -125 386 -30 64 60 94 177 82 315 -20 244 -103 373 -428 670
-383 349 -518 560 -558 873 -36 288 37 566 191 727 101 107 199 159 360 193
88 18 353 12 435 -10z m-4696 -26 c201 -21 325 -74 437 -186 55 -54 81 -91
112 -155 93 -192 94 -206 90 -1324 l-3 -950 -27 -97 c-71 -259 -224 -415 -471
-480 -77 -20 -110 -22 -554 -25 l-473 -4 0 1615 0 1616 398 0 c218 0 439 -5
491 -10z m1521 -1605 l0 -1615 -255 0 -255 0 0 1615 0 1615 255 0 255 0 0
-1615z m1480 1609 c0 -3 117 -724 260 -1603 143 -879 260 -1603 260 -1609 0
-9 -67 -12 -253 -12 l-253 0 -44 315 -44 315 -287 0 -287 0 -6 -27 c-8 -37
-86 -575 -86 -590 0 -10 -54 -13 -238 -13 l-238 0 263 1613 c144 886 263 1613
263 1615 0 5 690 2 690 -4z"/>
<path d="M15411 25582 c-73 -497 -130 -906 -128 -909 7 -6 400 -64 405 -59 2
3 40 249 83 547 43 298 80 543 82 546 3 2 170 -272 373 -609 202 -337 371
-616 376 -619 11 -7 337 -53 342 -48 3 4 255 1739 259 1789 2 24 1 24 -197 53
-109 15 -202 25 -206 20 -4 -4 -42 -249 -85 -543 -42 -294 -79 -537 -81 -539
-6 -6 23 -53 -379 614 l-367 611 -172 25 -172 25 -133 -904z"/>
<path d="M13919 26465 c-97 -7 -186 -15 -198 -17 -20 -3 -60 -105 -366 -943
-189 -517 -343 -941 -341 -942 4 -5 420 28 426 33 3 3 35 94 71 202 l66 197
384 27 c211 14 403 27 426 27 l43 1 95 -191 96 -191 62 6 c34 3 132 11 217 17
85 5 155 11 157 13 1 1 -171 328 -383 726 -212 399 -424 798 -471 888 -47 89
-91 161 -97 161 -6 -1 -90 -7 -187 -14z m191 -764 c90 -181 162 -332 160 -335
-5 -4 -573 -45 -578 -41 -1 1 52 161 118 355 66 194 120 355 120 357 0 20 38
-51 180 -336z"/>
<path d="M11830 26114 c-14 -2 -52 -9 -85 -15 -72 -13 -856 -229 -868 -239 -7
-6 474 -1754 485 -1765 2 -3 398 104 405 109 1 0 -29 111 -67 246 -38 135 -68
246 -67 247 9 8 372 103 380 100 7 -3 115 -91 242 -196 126 -105 234 -191 240
-191 18 0 425 115 425 120 -1 3 -122 104 -270 225 -148 121 -269 223 -269 228
-1 4 17 23 39 43 60 54 133 170 160 255 20 60 25 93 24 179 -3 314 -185 561
-469 635 -59 16 -256 28 -305 19z m187 -387 c60 -31 97 -72 132 -147 22 -46
26 -69 26 -145 0 -80 -3 -95 -27 -136 -33 -57 -82 -100 -151 -136 -44 -23
-447 -145 -455 -138 -9 8 -170 611 -164 616 7 6 352 103 402 113 14 2 61 3
105 2 63 -3 92 -9 132 -29z"/>
<path d="M17746 25930 c-32 -89 -56 -163 -54 -165 2 -2 121 -44 264 -95 144
-51 267 -95 273 -99 7 -5 -70 -235 -234 -701 -135 -382 -244 -699 -242 -705 5
-11 386 -149 394 -141 3 2 114 316 248 696 134 381 246 695 249 698 3 3 124
-37 268 -88 145 -51 269 -93 276 -94 17 -1 129 312 116 323 -5 5 -338 124
-740 265 -402 140 -738 258 -746 261 -12 5 -28 -30 -72 -155z"/>
<path d="M19321 24530 c-226 -445 -412 -814 -413 -820 -2 -6 83 -56 188 -110
l190 -100 412 814 c226 447 412 818 414 825 3 12 -343 200 -368 201 -7 0 -197
-364 -423 -810z"/>
<path d="M9382 25194 l-182 -96 5 -61 c3 -34 28 -449 55 -922 27 -473 53 -897
56 -942 l6 -81 189 96 189 97 0 37 c0 20 -7 117 -15 214 -9 97 -15 178 -13
179 2 1 131 69 288 150 157 81 326 169 376 195 l92 49 163 -138 164 -138 190
98 c105 54 190 103 190 108 0 10 -1550 1251 -1562 1251 -5 0 -90 -44 -191 -96z
m517 -639 c143 -121 257 -223 253 -226 -14 -13 -503 -261 -507 -258 -3 3 -65
713 -65 743 0 10 6 5 319 -259z"/>
<path d="M7933 24196 c-297 -57 -595 -270 -761 -544 -49 -81 -98 -207 -117
-301 -26 -127 -17 -327 20 -441 54 -167 126 -283 254 -410 181 -180 395 -270
639 -270 268 0 510 101 730 305 159 148 304 376 352 557 l11 39 -231 282
c-128 155 -236 283 -240 285 -11 4 -295 -227 -295 -239 0 -4 68 -90 150 -190
83 -101 158 -193 168 -206 18 -23 18 -24 -18 -88 -79 -142 -239 -273 -389
-321 -61 -19 -101 -25 -170 -25 -162 0 -275 50 -401 176 -127 126 -187 261
-187 420 0 219 134 425 352 539 90 47 170 66 284 66 53 0 96 2 96 4 0 2 12 83
26 181 14 97 23 179 20 182 -12 13 -226 12 -293 -1z"/>
<path d="M4280 17708 c0 -7 -34 -117 -75 -245 l-76 -233 -254 -2 -255 -3 205
-149 c113 -81 205 -150 205 -151 0 -5 -147 -456 -156 -480 -6 -16 -5 -18 7 -9
76 60 404 294 411 294 5 0 101 -68 215 -150 113 -83 203 -145 201 -138 -3 7
-37 113 -77 235 -39 122 -74 228 -76 235 -4 9 70 69 200 163 l206 150 -254 3
-253 2 -61 188 c-34 103 -69 213 -79 245 -16 51 -34 76 -34 45z"/>
<path d="M4056 15700 c-3 -8 -31 -94 -62 -190 -31 -96 -80 -247 -108 -335
l-52 -160 -367 -5 -367 -5 103 -74 c396 -288 473 -344 480 -351 5 -4 -1 -34
-11 -66 -11 -32 -61 -187 -112 -344 -51 -157 -95 -289 -98 -295 -3 -5 10 2 29
16 18 14 88 64 154 112 66 48 185 134 264 192 79 58 148 105 152 105 7 0 284
-198 508 -363 52 -38 92 -63 89 -56 -3 8 -19 57 -36 109 -17 52 -65 200 -106
329 -42 129 -76 242 -76 250 1 9 56 55 123 103 67 48 198 143 291 210 l168
123 -365 3 -365 2 -92 283 c-136 420 -137 424 -144 407z"/>
<path d="M4286 13260 c-3 -8 -39 -118 -80 -245 l-74 -230 -255 -5 -255 -5 204
-148 c112 -82 204 -152 204 -155 0 -4 -36 -115 -79 -247 -43 -132 -78 -241
-77 -241 0 -1 92 65 204 147 112 82 208 149 213 149 5 0 102 -68 216 -150 113
-83 203 -145 201 -138 -3 7 -37 113 -77 235 -39 122 -74 228 -76 235 -4 9 70
69 200 163 l206 150 -255 3 -255 2 -41 128 c-87 277 -119 366 -124 352z"/>
<path d="M25230 17709 c0 -6 -34 -116 -76 -245 l-76 -234 -254 -2 -255 -3 188
-137 c103 -75 196 -143 205 -150 16 -12 12 -30 -62 -258 -43 -134 -78 -245
-77 -246 1 -1 94 65 206 147 113 82 208 149 212 149 4 0 99 -67 210 -149 112
-82 205 -148 206 -147 1 1 -33 112 -77 247 -43 134 -76 247 -72 250 4 3 96 71
206 150 l198 144 -254 3 -254 2 -61 188 c-34 103 -69 213 -79 245 -16 51 -34
76 -34 46z"/>
<path d="M25456 15683 c-4 -16 -50 -161 -102 -323 -53 -162 -99 -306 -103
-320 l-8 -25 -366 -5 -367 -5 103 -75 c367 -267 482 -354 481 -364 -1 -13
-201 -631 -215 -665 -5 -13 -8 -25 -7 -26 2 -2 136 93 298 211 162 118 297
214 301 214 7 0 90 -60 289 -206 162 -119 305 -222 307 -220 1 1 -46 148 -104
326 -59 179 -107 338 -107 354 -1 31 35 60 444 354 l135 97 -367 3 -367 2 -91
281 c-50 154 -101 311 -113 350 -12 38 -25 69 -28 69 -4 0 -10 -12 -13 -27z"/>
<path d="M25230 13259 c0 -6 -34 -116 -76 -245 l-76 -234 -254 -2 -255 -3 188
-137 c103 -75 196 -143 205 -150 16 -12 12 -31 -62 -258 -44 -134 -78 -245
-77 -246 1 -1 94 65 206 147 113 82 208 149 212 149 4 0 99 -67 210 -149 112
-82 205 -148 206 -147 1 1 -33 112 -77 247 -43 134 -76 247 -72 250 4 3 96 71
206 150 l198 144 -254 3 -254 2 -61 188 c-34 103 -69 213 -79 245 -16 51 -34
76 -34 46z"/>
<path d="M20935 7189 c-88 -71 -161 -132 -163 -137 -2 -8 493 -1895 506 -1925
6 -16 30 0 172 113 91 72 166 135 168 139 1 3 -24 97 -57 208 l-58 201 315
253 c173 140 324 260 334 267 16 11 41 1 203 -89 l185 -101 43 33 c198 155
305 245 299 250 -4 3 -322 167 -707 364 -385 197 -785 402 -890 455 l-190 98
-160 -129z m653 -549 c144 -79 262 -147 262 -151 0 -8 -440 -362 -444 -357 -5
5 -206 703 -206 711 0 5 28 -7 63 -25 34 -19 180 -99 325 -178z"/>
<path d="M19665 6320 c-105 -62 -170 -105 -169 -114 1 -11 879 -1556 900
-1585 5 -6 369 207 367 216 -6 27 -904 1578 -915 1580 -7 1 -89 -43 -183 -97z"/>
<path d="M18445 5732 c-407 -162 -742 -297 -744 -298 -2 -2 115 -307 124 -321
0 -1 120 45 266 102 145 58 269 105 275 105 6 0 129 -298 274 -662 145 -365
269 -675 276 -690 l14 -26 187 75 c104 41 191 78 195 82 6 5 -390 1016 -538
1376 -3 6 115 59 266 119 148 59 270 112 270 117 0 7 -119 311 -123 316 -1 0
-335 -132 -742 -295z"/>
<path d="M9785 5333 c-413 -366 -751 -667 -752 -671 -2 -6 308 -150 379 -177
11 -5 59 34 171 139 l154 145 384 -174 384 -174 0 -217 0 -216 198 -90 c109
-49 200 -88 201 -86 2 1 5 455 7 1008 l4 1004 -145 67 c-80 37 -165 76 -190
87 l-46 19 -749 -664z m754 -189 c-7 -203 -13 -370 -14 -371 -5 -8 -517 234
-514 242 5 13 532 506 536 501 2 -1 -2 -169 -8 -372z"/>
<path d="M11865 5418 c-21 -84 -402 -1763 -401 -1765 5 -6 408 -95 411 -91 4
3 88 362 109 464 l7 31 191 -44 c105 -24 192 -44 193 -46 1 -1 53 -129 114
-285 62 -155 117 -284 121 -287 7 -4 179 -45 397 -93 l42 -10 -16 42 c-9 22
-70 171 -134 331 l-117 289 91 31 c51 17 118 48 149 69 169 111 269 314 270
541 1 119 -11 175 -58 273 -77 160 -248 293 -469 366 -73 24 -853 206 -882
206 -7 0 -15 -10 -18 -22z m579 -459 c206 -47 290 -84 352 -152 101 -112 96
-296 -12 -416 -99 -110 -205 -120 -509 -52 -104 24 -194 47 -198 51 -6 5 108
547 129 608 5 15 -4 17 238 -39z"/>
<path d="M17238 5322 c-103 -20 -189 -40 -192 -43 -3 -3 39 -245 94 -536 55
-292 100 -536 100 -542 0 -7 -833 682 -1083 897 -16 14 -30 14 -140 -7 -215
-41 -217 -41 -217 -59 0 -15 331 -1784 334 -1789 3 -3 406 74 410 78 2 2 -43
247 -99 544 -56 297 -101 541 -100 543 1 1 243 -199 537 -445 294 -247 542
-454 551 -462 14 -11 42 -9 187 19 102 19 170 37 170 44 0 6 -76 411 -168 901
-127 671 -172 890 -183 892 -8 1 -98 -15 -201 -35z"/>
<path d="M14347 5014 c-8 -16 -155 -326 -327 -689 -172 -363 -359 -759 -416
-879 -57 -121 -103 -220 -101 -221 1 -2 98 -4 216 -6 l213 -4 86 193 86 194
360 -7 c199 -4 392 -10 429 -14 l68 -6 74 -189 c40 -104 77 -192 82 -197 12
-12 433 -16 433 -4 0 10 -765 1834 -772 1840 -2 1 -96 6 -210 10 l-206 7 -15
-28z m348 -749 c70 -181 130 -336 133 -344 5 -12 -37 -13 -284 -7 -159 4 -290
8 -291 10 -2 1 60 146 138 322 77 175 145 330 150 343 6 14 13 20 18 15 4 -5
66 -157 136 -339z"/>
<path d="M12235 10299 c-3 -8 -4 -527 -3 -1154 l3 -1140 170 0 c159 0 173 2
219 24 57 28 100 88 116 165 8 36 10 331 8 991 -3 880 -4 943 -21 980 -25 54
-63 94 -117 118 -38 18 -69 22 -207 25 -130 3 -164 1 -168 -9z"/>
<path d="M15245 10169 c-5 -33 -215 -1546 -215 -1555 0 -2 101 -4 225 -4 159
0 225 3 225 11 0 21 -222 1574 -225 1578 -2 1 -6 -12 -10 -30z"/>
<path d="M55 16334 c10 -17 26 -41 37 -55 l20 -24 -17 31 c-10 17 -26 41 -37
55 l-20 24 17 -31z"/>
<path d="M12980 1616 c0 -17 -48 -38 -71 -31 -13 4 -19 2 -19 -8 0 -10 -8 -13
-25 -9 -15 2 -25 0 -25 -7 0 -6 -11 -11 -25 -11 -14 0 -25 -5 -25 -11 0 -7
-10 -9 -25 -5 -22 6 -25 3 -25 -18 0 -21 -6 -25 -50 -31 -45 -6 -50 -9 -50
-32 0 -20 -4 -24 -20 -20 -17 4 -20 0 -20 -24 0 -26 -3 -29 -25 -23 -19 5 -25
2 -25 -11 0 -13 -6 -16 -25 -11 -23 6 -25 3 -25 -24 0 -25 -4 -30 -25 -30 -21
0 -25 -5 -25 -31 0 -30 -2 -31 -35 -27 -29 3 -35 1 -35 -14 0 -13 -8 -18 -25
-18 -22 0 -25 -4 -25 -35 0 -31 -3 -35 -25 -35 -23 0 -25 -4 -25 -45 0 -41 -2
-45 -25 -45 -24 0 -25 -3 -25 -56 0 -55 -1 -56 -25 -52 -25 5 -25 5 -25 -74
l0 -80 -25 6 -25 6 0 -102 0 -103 186 -210 c102 -116 191 -209 198 -209 7 1
338 196 734 434 l722 433 96 -74 c53 -41 148 -114 212 -163 159 -121 802 -618
880 -678 l62 -50 0 177 0 177 -40 -7 -40 -7 0 46 c0 25 -4 46 -10 46 -6 0 -10
38 -10 94 l0 95 -35 -6 c-35 -6 -35 -5 -35 31 0 25 -4 36 -15 36 -11 0 -15 11
-15 40 0 38 -1 40 -25 34 -21 -5 -25 -3 -25 15 0 14 -6 21 -20 21 -16 0 -20 7
-20 35 0 31 -3 35 -25 35 -20 0 -25 5 -25 25 0 22 -3 25 -25 19 -21 -5 -25 -3
-25 15 0 12 -6 21 -15 21 -8 0 -15 9 -15 19 0 14 -5 18 -20 14 -11 -3 -31 -2
-45 1 -20 5 -25 13 -25 37 0 31 -1 31 -40 25 -39 -6 -40 -6 -40 24 0 26 -3 30
-29 30 -42 0 -61 10 -61 31 0 15 -7 19 -36 19 -34 0 -64 18 -64 38 0 5 -22 7
-50 4 -49 -4 -50 -4 -50 22 0 24 -3 26 -45 26 -33 0 -45 4 -45 15 0 11 -12 15
-50 15 -43 0 -50 3 -50 20 0 17 -7 20 -50 20 -47 0 -50 2 -50 25 0 23 -4 25
-45 25 -25 0 -45 5 -45 10 0 6 -22 10 -50 10 -43 0 -50 3 -50 20 0 17 -7 20
-50 20 -27 0 -50 5 -50 10 0 6 -20 10 -45 10 -30 0 -47 5 -53 16 -7 12 -34 19
-108 25 -138 12 -546 59 -561 64 -7 2 -13 -2 -13 -9z"/>
</g>
</svg>
